<svg xmlns="http://www.w3.org/2000/svg" viewBox="0 0 512 512">

    <defs>
        <linearGradient id="firebaseGrad" x1="0%" y1="0%" x2="100%" y2="100%">
            <stop offset="0%" stop-color="#FFA000"/>
            <stop offset="50%" stop-color="#FF6F00"/>
            <stop offset="100%" stop-color="#FFD54F"/>
        </linearGradient>
        <linearGradient id="intellijGrad" x1="0%" y1="0%" x2="100%" y2="100%">
            <stop offset="0%" stop-color="#A78BFA"/>
            <stop offset="50%" stop-color="#3B82F6"/>
            <stop offset="100%" stop-color="#22D3EE"/>
        </linearGradient>
        <path id="outerTooth" d="M230 24 L282 24 L292 72 L220 72 Z"/>
        <path id="innerTooth" d="M246 118 L266 118 L272 150 L240 150 Z"/>
    </defs>

    <!-- OUTER GEAR -->
    <circle cx="256" cy="256" r="190" fill="url(#firebaseGrad)"/>
    <g fill="url(#firebaseGrad)">
        <use href="#outerTooth" transform="rotate(0 256 256)"/>
        <use href="#outerTooth" transform="rotate(30 256 256)"/>
        <use href="#outerTooth" transform="rotate(60 256 256)"/>
        <use href="#outerTooth" transform="rotate(90 256 256)"/>
        <use href="#outerTooth" transform="rotate(120 256 256)"/>
        <use href="#outerTooth" transform="rotate(150 256 256)"/>
        <use href="#outerTooth" transform="rotate(180 256 256)"/>
        <use href="#outerTooth" transform="rotate(210 256 256)"/>
        <use href="#outerTooth" transform="rotate(240 256 256)"/>
        <use href="#outerTooth" transform="rotate(270 256 256)"/>
        <use href="#outerTooth" transform="rotate(300 256 256)"/>
        <use href="#outerTooth" transform="rotate(330 256 256)"/>
    </g>

    <!-- CUTOUT (thin orange rim) -->
    <circle cx="256" cy="256" r="178" fill="#2B2D30"/>

    <!-- INNER GEAR (enlarged) -->
    <g transform="translate(256 256) scale(1.267) translate(-256 -256)" fill="url(#intellijGrad)">
        <circle cx="256" cy="256" r="120"/>
        <use href="#innerTooth" transform="rotate(0 256 256)"/>
        <use href="#innerTooth" transform="rotate(45 256 256)"/>
        <use href="#innerTooth" transform="rotate(90 256 256)"/>
        <use href="#innerTooth" transform="rotate(135 256 256)"/>
        <use href="#innerTooth" transform="rotate(180 256 256)"/>
        <use href="#innerTooth" transform="rotate(225 256 256)"/>
        <use href="#innerTooth" transform="rotate(270 256 256)"/>
        <use href="#innerTooth" transform="rotate(315 256 256)"/>
    </g>

    <!-- INNER HUB -->
    <circle cx="256" cy="256" r="132" fill="#2B2D30"/>

    <!-- .env WORDMARK (JetBrains Mono Bold, outlined, period kerned tight) -->
    <path fill="#7DD3FC" d="M143.13 293.17Q137.65 293.17 134.33 289.84Q131.0 286.52 131.0 281.17Q131.0 275.82 134.33 272.43Q137.65 269.04 143.13 269.04Q148.61 269.04 151.93 272.43Q155.26 275.82 155.26 281.17Q155.26 286.52 151.93 289.84Q148.61 293.17 143.13 293.17Z M190.21 293.17Q181.08 293.17 174.3 289.65Q167.52 286.13 163.8 279.67Q160.08 273.21 160.08 264.48V247.52Q160.08 238.79 163.8 232.33Q167.52 225.87 174.3 222.35Q181.08 218.83 190.21 218.83Q199.21 218.83 205.92 222.35Q212.64 225.87 216.35 232.2Q220.07 238.52 220.07 247.0V260.04H175.73V265.0Q175.73 272.3 179.51 276.02Q183.3 279.74 190.21 279.74Q195.29 279.74 198.88 277.97Q202.47 276.21 203.12 272.82H219.29Q217.59 282.08 209.64 287.62Q201.68 293.17 190.21 293.17ZM175.73 247.0V249.48L204.42 249.35V246.87Q204.42 239.44 200.77 235.39Q197.12 231.35 190.21 231.35Q183.03 231.35 179.38 235.46Q175.73 239.57 175.73 247.0Z M239.24 291.86V220.14H255.15V233.57Q256.46 226.79 261.54 222.81Q266.63 218.83 274.45 218.83Q285.02 218.83 291.34 225.87Q297.67 232.92 297.67 244.78V291.86H281.37V246.74Q281.37 240.09 277.91 236.5Q274.45 232.92 268.58 232.92Q262.46 232.92 259.0 236.57Q255.54 240.22 255.54 247.0V291.86Z M336.27 291.86 312.14 220.14H329.23L343.05 263.69Q344.35 267.61 345.33 271.58Q346.31 275.56 346.7 278.43Q347.22 275.56 348.07 271.58Q348.92 267.61 350.09 263.82L363.79 220.14H381.0L357.0 291.86Z"/>

</svg>
