<svg xmlns="http://www.w3.org/2000/svg" viewBox="140 140 232 232" width="16" height="16">
    <!-- ".e" badge, monochrome. Shared tool-window + menu icon, light theme. -->
    <rect x="151" y="151" width="210" height="210" rx="48"
          fill="none" stroke="#6C707E" stroke-width="14"/>
    <g transform="translate(256 256) scale(1.65) translate(-175.5 -256)">
        <path fill="#6C707E" d="M143.13 293.17Q137.65 293.17 134.33 289.84Q131.0 286.52 131.0 281.17Q131.0 275.82 134.33 272.43Q137.65 269.04 143.13 269.04Q148.61 269.04 151.93 272.43Q155.26 275.82 155.26 281.17Q155.26 286.52 151.93 289.84Q148.61 293.17 143.13 293.17Z M190.21 293.17Q181.08 293.17 174.3 289.65Q167.52 286.13 163.8 279.67Q160.08 273.21 160.08 264.48V247.52Q160.08 238.79 163.8 232.33Q167.52 225.87 174.3 222.35Q181.08 218.83 190.21 218.83Q199.21 218.83 205.92 222.35Q212.64 225.87 216.35 232.2Q220.07 238.52 220.07 247.0V260.04H175.73V265.0Q175.73 272.3 179.51 276.02Q183.3 279.74 190.21 279.74Q195.29 279.74 198.88 277.97Q202.47 276.21 203.12 272.82H219.29Q217.59 282.08 209.64 287.62Q201.68 293.17 190.21 293.17ZM175.73 247.0V249.48L204.42 249.35V246.87Q204.42 239.44 200.77 235.39Q197.12 231.35 190.21 231.35Q183.03 231.35 179.38 235.46Q175.73 239.57 175.73 247.0Z"/>
    </g>
</svg>
