<svg width="16" height="16" viewBox="0 0 16 16" xmlns="http://www.w3.org/2000/svg">
    <mask id="hub">
        <rect width="16" height="16" fill="white"/>
        <circle cx="8" cy="8" r="2" fill="black"/>
    </mask>
    <g fill="#CED0D6" mask="url(#hub)">
        <circle cx="8" cy="8" r="5"/>
        <rect x="7" y="0.8" width="2" height="2.8" rx="0.4"/>
        <rect x="7" y="0.8" width="2" height="2.8" rx="0.4" transform="rotate(45 8 8)"/>
        <rect x="7" y="0.8" width="2" height="2.8" rx="0.4" transform="rotate(90 8 8)"/>
        <rect x="7" y="0.8" width="2" height="2.8" rx="0.4" transform="rotate(135 8 8)"/>
        <rect x="7" y="0.8" width="2" height="2.8" rx="0.4" transform="rotate(180 8 8)"/>
        <rect x="7" y="0.8" width="2" height="2.8" rx="0.4" transform="rotate(225 8 8)"/>
        <rect x="7" y="0.8" width="2" height="2.8" rx="0.4" transform="rotate(270 8 8)"/>
        <rect x="7" y="0.8" width="2" height="2.8" rx="0.4" transform="rotate(315 8 8)"/>
    </g>
</svg>
